<svg id="Layer_1" data-name="Layer 1" xmlns="http://www.w3.org/2000/svg" viewBox="0 0 300 69"><defs><style>.cls-1{fill:#18428e;}.cls-2{fill:#111;}.cls-3{fill:#414141;}</style></defs><title>Artboard 333</title><path class="cls-1" d="M62.06,8.64V25.17h0V36.12A18.4,18.4,0,0,1,55.79,49.4l-17,15-17-15a18.17,18.17,0,0,1-4.78-6.63h5.32A13.75,13.75,0,0,0,25,45.83L38.8,58,52.65,45.83a13.64,13.64,0,0,0,4.65-9.71h0V22.78h0v-9.4L38.75,9.44,20.33,13.38V17H15.57V8.64L38.73,3.57Z"/><path class="cls-1" d="M53.29,25.16V17L38.76,13.8,24.34,17V35.53a9.74,9.74,0,0,0,3.29,7.3l11.18,9.85L50,42.83a9.72,9.72,0,0,0,3.28-6.72H48.51a5,5,0,0,1-1.65,3.16l-8,7.09-8-7.09a5,5,0,0,1-1.7-3.74V20.93l9.68-2.13,9.79,2.13v4.23Z"/><path class="cls-1" d="M42.7,36.13,40.43,31a3.18,3.18,0,1,0-3.77-.13l-2.14,5.2Z"/><path class="cls-2" d="M73,28.83V23.36h2.64V8.65h6.6V23.36h5.27v5.47H82.28V38c0,2.31.72,2.83,1.91,2.83a3.32,3.32,0,0,0,2-.79l2.57,4.62a8.6,8.6,0,0,1-5.67,1.85c-4.29,0-7.39-2.11-7.39-8.38v-9.3Z"/><path class="cls-2" d="M92.1,8.49h6.6V26.26c1.45-2.38,3.89-3.5,7.06-3.5,5,0,8.51,3.5,8.51,9.5V45.91h-6.6V32.72c0-2.5-1.32-4-4-4-3.17,0-5,1.71-5,5.08V45.91H92.1Z"/><path class="cls-2" d="M119.34,23.36h6.6v3.49a6.87,6.87,0,0,1,6.46-4.09,6.47,6.47,0,0,1,3.56,1l-2.11,5.67A5.64,5.64,0,0,0,131,28.7c-3.17,0-5.08,1.91-5.08,6.59V45.91h-6.6Z"/><path class="cls-2" d="M150.08,41A8.52,8.52,0,0,0,156,38.79l4,4c-2,2.17-5,3.76-9.7,3.76-7.85,0-12.86-5-12.86-11.88s5.34-11.87,12.2-11.87c7.92,0,12.4,6.27,11.87,14.12H144.21C144.87,39.38,146.78,41,150.08,41Zm4.42-8.71a4.68,4.68,0,0,0-4.95-4,5,5,0,0,0-5.28,4Z"/><path class="cls-2" d="M174.94,28.3a6.79,6.79,0,0,0-5.4,2.44l-4-3.69a12.55,12.55,0,0,1,9.83-4.29c6.4,0,10.35,3.3,10.35,10V45.91H179.1v-2a7.94,7.94,0,0,1-6.33,2.64c-4.55,0-8.38-2.25-8.38-7.52,0-4.42,3.89-6.6,8.84-6.6h5.87C179,29.36,177.32,28.3,174.94,28.3Zm-1.38,8.58c-1.72,0-2.64.85-2.64,2.17s.86,2.18,3,2.18c3,0,5.15-1.58,5.15-3.43v-.92Z"/><path class="cls-2" d="M189.39,28.83V23.36H192V8.65h6.59V23.36h5.28v5.47h-5.28V38c0,2.31.73,2.83,1.91,2.83a3.27,3.27,0,0,0,2-.79l2.58,4.62a8.66,8.66,0,0,1-5.68,1.85c-4.28,0-7.38-2.11-7.38-8.38v-9.3Z"/><path class="cls-2" d="M207.2,34.63a11.58,11.58,0,0,1,11.87-11.87c4.55,0,7.38,1.59,9.43,4l-4.35,4a6.6,6.6,0,0,0-4.88-2.24c-3.3,0-5.28,2.7-5.28,6.13s2,6.14,5.41,6.14a6.78,6.78,0,0,0,5.14-2.38l4.36,4c-2.18,2.51-5,4.16-9.7,4.16A11.62,11.62,0,0,1,207.2,34.63Z"/><path class="cls-2" d="M231.07,34.63c0-6.85,5.41-11.87,12.34-11.87s12.33,5,12.33,11.87-5.41,11.88-12.33,11.88S231.07,41.49,231.07,34.63Zm17.88,0c0-3.62-2.11-6.26-5.54-6.26s-5.54,2.64-5.54,6.26,2.11,6.27,5.54,6.27S249,38.26,249,34.63Z"/><path class="cls-2" d="M260.23,23.36h6.59v2.57c1.25-2,3.56-3.17,7-3.17,5.87,0,10.62,5,10.62,11.87s-4.75,11.88-10.62,11.88c-3.43,0-5.74-1.19-7-3.17V56h-6.59Zm17.41,11.27c0-3.69-2.18-6.06-5.54-6.06s-5.41,2.37-5.41,6.06,2,6.07,5.41,6.07S277.64,38.33,277.64,34.63Z"/><path class="cls-3" d="M76.08,62.8c-1.43,0-2.53-.78-2.53-2H74.8a1.15,1.15,0,0,0,1.28,1.06c.82,0,1.28-.44,1.28-1,0-1.73-3.79-.61-3.79-3.25,0-1.25,1-2,2.46-2a2.18,2.18,0,0,1,2.43,1.94H77.17A1.12,1.12,0,0,0,76,56.49c-.67,0-1.2.3-1.2,1,0,1.62,3.79.61,3.79,3.22A2.23,2.23,0,0,1,76.08,62.8Z"/><path class="cls-3" d="M83.81,62.82A2.75,2.75,0,0,1,81,59.89,2.71,2.71,0,0,1,83.81,57a2.65,2.65,0,0,1,2.76,2.79,3.64,3.64,0,0,1,0,.57H82.19a1.57,1.57,0,0,0,1.62,1.5A1.38,1.38,0,0,0,85.15,61h1.26A2.58,2.58,0,0,1,83.81,62.82ZM82.2,59.39h3.14A1.47,1.47,0,0,0,83.76,58,1.55,1.55,0,0,0,82.2,59.39Z"/><path class="cls-3" d="M91.54,57a2.46,2.46,0,0,1,2.61,1.88H92.89A1.33,1.33,0,0,0,91.54,58c-1,0-1.57.7-1.57,1.93s.62,1.94,1.57,1.94a1.29,1.29,0,0,0,1.35-.89h1.26a2.54,2.54,0,0,1-2.61,1.88,2.93,2.93,0,0,1,0-5.85Z"/><path class="cls-3" d="M101.9,62.73h-1.18v-.68a2.12,2.12,0,0,1-1.67.76,2.22,2.22,0,0,1-2.34-2.42V57.06h1.16v3.16a1.37,1.37,0,0,0,1.42,1.57c.87,0,1.43-.53,1.43-1.57V57.06h1.18Z"/><path class="cls-3" d="M106.05,62.73h-1.18V57.06h1.18v.82a1.84,1.84,0,0,1,1.69-.91v1.21h-.29c-.87,0-1.4.36-1.4,1.57Z"/><path class="cls-3" d="M110.11,55.56a.75.75,0,1,1,.75.75A.74.74,0,0,1,110.11,55.56Zm.15,1.5h1.17v5.67h-1.17Z"/><path class="cls-3" d="M114.6,58h-.67v-1h.67V55.65h1.18v1.41h1.38v1h-1.38v3.14c0,.42.17.59.66.59h.72v1h-.92c-1,0-1.64-.42-1.64-1.57Z"/><path class="cls-3" d="M123.57,57.06h1.21l-3.48,8.33h-1.21l1.15-2.75L119,57.06h1.31l1.59,4.32Z"/><path class="cls-3" d="M133.57,62.8c-1.43,0-2.53-.78-2.53-2h1.25a1.16,1.16,0,0,0,1.28,1.06c.82,0,1.29-.44,1.29-1,0-1.73-3.8-.61-3.8-3.25,0-1.25,1-2,2.46-2A2.18,2.18,0,0,1,136,57.43h-1.3a1.11,1.11,0,0,0-1.2-.94c-.68,0-1.21.3-1.21,1,0,1.62,3.79.61,3.79,3.22A2.23,2.23,0,0,1,133.57,62.8Z"/><path class="cls-3" d="M139.05,58h-.67v-1h.67V55.65h1.18v1.41h1.38v1h-1.38v3.14c0,.42.17.59.66.59h.72v1h-.93c-1,0-1.63-.42-1.63-1.57Z"/><path class="cls-3" d="M146.41,57a2.42,2.42,0,0,1,2,.91v-.82h1.18v5.67h-1.18v-.84a2.45,2.45,0,0,1-2,.93,2.73,2.73,0,0,1-2.65-3A2.69,2.69,0,0,1,146.41,57Zm.25,1a1.74,1.74,0,0,0-1.72,1.88,1.78,1.78,0,0,0,1.72,1.93,1.91,1.91,0,0,0,0-3.81Z"/><path class="cls-3" d="M153.71,62.73h-1.17V57.06h1.17v.82a1.86,1.86,0,0,1,1.7-.91v1.21h-.3c-.86,0-1.4.36-1.4,1.57Z"/><path class="cls-3" d="M158.11,58h-.67v-1h.67V55.65h1.18v1.41h1.38v1h-1.38v3.14c0,.42.17.59.66.59h.72v1h-.92c-1,0-1.64-.42-1.64-1.57Z"/><path class="cls-3" d="M165.25,62.82A2.14,2.14,0,0,1,162.88,61h1.21a1,1,0,0,0,1.14.84c.67,0,1-.28,1-.67,0-1.12-3.29-.48-3.29-2.56,0-.9.85-1.63,2.18-1.63a1.94,1.94,0,0,1,2.19,1.82h-1.17a.94.94,0,0,0-1.06-.83c-.62,0-1,.25-1,.63,0,1.15,3.2.51,3.26,2.56C167.42,62.1,166.58,62.82,165.25,62.82Z"/><path class="cls-3" d="M173.56,57.06h1.2l1.18,4.56,1.2-4.56h1.23l1.15,4.54,1.17-4.54h1.15l-1.75,5.67h-1.24l-1.14-4.19-1.14,4.19h-1.24Z"/><path class="cls-3" d="M184,55.56a.75.75,0,1,1,.75.75A.74.74,0,0,1,184,55.56Zm.15,1.5h1.18v5.67h-1.18Z"/><path class="cls-3" d="M188.49,58h-.67v-1h.67V55.65h1.18v1.41h1.38v1h-1.38v3.14c0,.42.17.59.66.59h.72v1h-.92c-1,0-1.64-.42-1.64-1.57Z"/><path class="cls-3" d="M193.57,55.12h1.17v2.6A2.26,2.26,0,0,1,196.5,57a2.19,2.19,0,0,1,2.26,2.42v3.34h-1.17V59.56c0-1-.56-1.57-1.42-1.57a1.37,1.37,0,0,0-1.43,1.57v3.17h-1.17Z"/><path class="cls-3" d="M208.26,59.83H207v2.9h-1.18V55.58h2.47c1.7,0,2.53,1,2.53,2.13S210.13,59.83,208.26,59.83Zm0-1c.92,0,1.33-.44,1.33-1.16s-.41-1.17-1.33-1.17H207v2.33Z"/><path class="cls-3" d="M215.79,62.82A2.75,2.75,0,0,1,213,59.89,2.71,2.71,0,0,1,215.79,57a2.65,2.65,0,0,1,2.76,2.79,3.64,3.64,0,0,1,0,.57h-4.34a1.57,1.57,0,0,0,1.62,1.5,1.38,1.38,0,0,0,1.34-.79h1.26A2.58,2.58,0,0,1,215.79,62.82Zm-1.61-3.43h3.14A1.47,1.47,0,0,0,215.74,58,1.55,1.55,0,0,0,214.18,59.39Z"/><path class="cls-3" d="M223.59,62.82a2.77,2.77,0,0,1-2.84-2.93,2.9,2.9,0,1,1,5.79,0A2.84,2.84,0,0,1,223.59,62.82Zm0-1a1.74,1.74,0,0,0,1.74-1.91,1.71,1.71,0,0,0-1.71-1.9,1.68,1.68,0,0,0-1.67,1.9C222,61.18,222.71,61.8,223.59,61.8Z"/><path class="cls-3" d="M232.28,57a2.69,2.69,0,0,1,2.67,2.9,2.74,2.74,0,0,1-2.67,3,2.55,2.55,0,0,1-2-.91v3.52h-1.18V57.06h1.18v.83A2.48,2.48,0,0,1,232.28,57ZM232,58a1.92,1.92,0,0,0,0,3.81,1.78,1.78,0,0,0,1.73-1.93A1.74,1.74,0,0,0,232,58Z"/><path class="cls-3" d="M237.54,55.12h1.18v7.61h-1.18Z"/><path class="cls-3" d="M244.13,62.82a2.74,2.74,0,0,1-2.82-2.93A2.71,2.71,0,0,1,244.13,57a2.64,2.64,0,0,1,2.76,2.79,3.64,3.64,0,0,1,0,.57h-4.33a1.55,1.55,0,0,0,1.61,1.5,1.37,1.37,0,0,0,1.34-.79h1.27A2.6,2.6,0,0,1,244.13,62.82Zm-1.6-3.43h3.14A1.47,1.47,0,0,0,244.08,58,1.54,1.54,0,0,0,242.53,59.39Z"/></svg>